<svg width="725" height="36" viewBox="0 0 725 36" fill="none" xmlns="http://www.w3.org/2000/svg">
<mask id="path-1-outside-1_4_131" maskUnits="userSpaceOnUse" x="-3" y="-3" width="731" height="42" fill="black">
<rect fill="white" x="-3" y="-3" width="731" height="42"/>
<path d="M4.5 31.5V27H18V31.5H4.5ZM18 27V22.5H22.5V27H18ZM0 27V4.5H4.5V27H0ZM18 9V4.5H22.5V9H18ZM4.5 4.5V0H18V4.5H4.5ZM31.5 31.5V27H45V31.5H31.5ZM27 27V13.5H31.5V27H27ZM45 27V13.5H49.5V27H45ZM31.5 13.5V9H45V13.5H31.5ZM63 22.5V13.5H67.5V22.5H63ZM72 31.5V13.5H76.5V31.5H72ZM54 31.5V9H63V13.5H58.5V31.5H54ZM67.5 13.5V9H72V13.5H67.5ZM90 22.5V13.5H94.5V22.5H90ZM99 31.5V13.5H103.5V31.5H99ZM81 31.5V9H90V13.5H85.5V31.5H81ZM94.5 13.5V9H99V13.5H94.5ZM108 27V9H112.5V27H108ZM112.5 31.5V27H126V9H130.5V31.5H112.5ZM153 31.5V13.5H157.5V31.5H153ZM135 31.5V9H153V13.5H139.5V31.5H135ZM162 31.5V9H166.5V31.5H162ZM162 4.5V0H166.5V4.5H162ZM180 31.5V27H184.5V31.5H180ZM175.5 27V9H171V4.5H175.5V0H180V4.5H184.5V9H180V27H175.5ZM189 36V31.5H207V36H189ZM189 22.5V9H193.5V22.5H189ZM207 31.5V27H193.5V22.5H207V9H211.5V31.5H207ZM234 31.5V9H238.5V31.5H234ZM234 4.5V0H238.5V4.5H234ZM243 31.5V27H261V31.5H243ZM261 27V22.5H265.5V27H261ZM247.5 22.5V18H261V22.5H247.5ZM243 18V13.5H247.5V18H243ZM247.5 13.5V9H265.5V13.5H247.5ZM306 22.5V13.5H310.5V22.5H306ZM288 36V9H292.5V13.5H297V18H292.5V22.5H306V27H292.5V36H288ZM297 13.5V9H306V13.5H297ZM333 18V13.5H337.5V18H333ZM315 31.5V9H319.5V13.5H324V18H319.5V31.5H315ZM324 13.5V9H333V13.5H324ZM346.5 31.5V27H364.5V31.5H346.5ZM342 27V13.5H346.5V18H360V13.5H364.5V22.5H346.5V27H342ZM346.5 13.5V9H360V13.5H346.5ZM369 31.5V27H387V31.5H369ZM387 27V22.5H391.5V27H387ZM373.5 22.5V18H387V22.5H373.5ZM369 18V13.5H373.5V18H369ZM373.5 13.5V9H391.5V13.5H373.5ZM400.5 31.5V27H418.5V31.5H400.5ZM396 27V13.5H400.5V18H414V13.5H418.5V22.5H400.5V27H396ZM400.5 13.5V9H414V13.5H400.5ZM441 31.5V13.5H445.5V31.5H441ZM423 31.5V9H441V13.5H427.5V31.5H423ZM459 31.5V27H463.5V31.5H459ZM454.5 27V9H450V4.5H454.5V0H459V4.5H463.5V9H459V27H454.5ZM468 31.5V22.5H472.5V31.5H468ZM513 27V4.5H517.5V27H513ZM495 31.5V0H513V4.5H499.5V27H513V31.5H495ZM526.5 31.5V27H540V31.5H526.5ZM522 27V13.5H526.5V27H522ZM540 27V13.5H544.5V27H540ZM526.5 13.5V9H540V13.5H526.5ZM567 31.5V27H585V31.5H567ZM585 27V22.5H589.5V27H585ZM571.5 22.5V18H585V22.5H571.5ZM567 18V13.5H571.5V18H567ZM571.5 13.5V9H589.5V13.5H571.5ZM598.5 31.5V27H616.5V31.5H598.5ZM594 27V13.5H598.5V18H612V13.5H616.5V22.5H598.5V27H594ZM598.5 13.5V9H612V13.5H598.5ZM639 31.5V13.5H643.5V31.5H639ZM621 31.5V9H639V13.5H625.5V31.5H621ZM648 27V13.5H652.5V27H648ZM652.5 13.5V9H661.5V13.5H652.5ZM652.5 31.5V27H666V18H661.5V13.5H666V0H670.5V31.5H652.5ZM693 31.5V9H697.5V31.5H693ZM693 4.5V0H697.5V4.5H693ZM711 31.5V27H715.5V31.5H711ZM706.5 27V9H702V4.5H706.5V0H711V4.5H715.5V9H711V27H706.5ZM720 31.5V22.5H724.5V31.5H720Z"/>
</mask>
<path d="M4.5 31.5V27H18V31.5H4.5ZM18 27V22.5H22.5V27H18ZM0 27V4.5H4.5V27H0ZM18 9V4.5H22.5V9H18ZM4.5 4.5V0H18V4.5H4.5ZM31.5 31.5V27H45V31.5H31.5ZM27 27V13.5H31.5V27H27ZM45 27V13.5H49.5V27H45ZM31.5 13.5V9H45V13.5H31.5ZM63 22.5V13.5H67.5V22.5H63ZM72 31.5V13.5H76.5V31.5H72ZM54 31.5V9H63V13.5H58.5V31.5H54ZM67.5 13.5V9H72V13.5H67.5ZM90 22.5V13.5H94.5V22.5H90ZM99 31.5V13.5H103.5V31.5H99ZM81 31.5V9H90V13.5H85.5V31.5H81ZM94.5 13.5V9H99V13.5H94.5ZM108 27V9H112.5V27H108ZM112.5 31.5V27H126V9H130.5V31.5H112.5ZM153 31.5V13.5H157.5V31.5H153ZM135 31.5V9H153V13.5H139.5V31.5H135ZM162 31.5V9H166.5V31.5H162ZM162 4.5V0H166.5V4.5H162ZM180 31.5V27H184.5V31.5H180ZM175.5 27V9H171V4.5H175.5V0H180V4.5H184.5V9H180V27H175.5ZM189 36V31.5H207V36H189ZM189 22.5V9H193.5V22.5H189ZM207 31.5V27H193.5V22.5H207V9H211.5V31.5H207ZM234 31.5V9H238.5V31.5H234ZM234 4.5V0H238.5V4.5H234ZM243 31.5V27H261V31.5H243ZM261 27V22.5H265.5V27H261ZM247.5 22.5V18H261V22.5H247.5ZM243 18V13.5H247.5V18H243ZM247.5 13.5V9H265.5V13.5H247.5ZM306 22.5V13.5H310.5V22.5H306ZM288 36V9H292.5V13.5H297V18H292.5V22.5H306V27H292.5V36H288ZM297 13.5V9H306V13.5H297ZM333 18V13.5H337.5V18H333ZM315 31.5V9H319.5V13.5H324V18H319.5V31.5H315ZM324 13.5V9H333V13.5H324ZM346.5 31.5V27H364.5V31.5H346.5ZM342 27V13.5H346.5V18H360V13.5H364.5V22.5H346.5V27H342ZM346.5 13.5V9H360V13.5H346.5ZM369 31.5V27H387V31.5H369ZM387 27V22.5H391.5V27H387ZM373.5 22.5V18H387V22.5H373.5ZM369 18V13.5H373.5V18H369ZM373.5 13.5V9H391.5V13.5H373.5ZM400.5 31.5V27H418.5V31.5H400.5ZM396 27V13.5H400.5V18H414V13.5H418.5V22.5H400.5V27H396ZM400.5 13.5V9H414V13.5H400.5ZM441 31.5V13.5H445.5V31.5H441ZM423 31.5V9H441V13.5H427.5V31.5H423ZM459 31.5V27H463.5V31.5H459ZM454.5 27V9H450V4.5H454.5V0H459V4.5H463.5V9H459V27H454.5ZM468 31.5V22.5H472.5V31.5H468ZM513 27V4.5H517.5V27H513ZM495 31.5V0H513V4.5H499.5V27H513V31.5H495ZM526.5 31.5V27H540V31.5H526.5ZM522 27V13.5H526.5V27H522ZM540 27V13.5H544.5V27H540ZM526.5 13.5V9H540V13.5H526.5ZM567 31.5V27H585V31.5H567ZM585 27V22.5H589.5V27H585ZM571.5 22.5V18H585V22.5H571.5ZM567 18V13.5H571.5V18H567ZM571.5 13.5V9H589.5V13.5H571.5ZM598.5 31.5V27H616.5V31.5H598.5ZM594 27V13.5H598.5V18H612V13.5H616.5V22.5H598.5V27H594ZM598.5 13.5V9H612V13.5H598.5ZM639 31.5V13.5H643.5V31.5H639ZM621 31.5V9H639V13.5H625.5V31.5H621ZM648 27V13.5H652.5V27H648ZM652.5 13.5V9H661.5V13.5H652.5ZM652.5 31.5V27H666V18H661.5V13.5H666V0H670.5V31.5H652.5ZM693 31.5V9H697.5V31.5H693ZM693 4.5V0H697.5V4.5H693ZM711 31.5V27H715.5V31.5H711ZM706.5 27V9H702V4.5H706.5V0H711V4.5H715.5V9H711V27H706.5ZM720 31.5V22.5H724.5V31.5H720Z" fill="white"/>
<path d="M4.5 31.5H1.5V34.5H4.5V31.5ZM4.5 27V24H1.5V27H4.5ZM18 27H21V24H18V27ZM18 31.5V34.5H21V31.5H18ZM18 27H15V30H18V27ZM18 22.5V19.5H15V22.5H18ZM22.5 22.5H25.5V19.5H22.5V22.5ZM22.5 27V30H25.5V27H22.5ZM0 27H-3V30H0V27ZM0 4.5V1.5H-3V4.5H0ZM4.5 4.5H7.5V1.5H4.5V4.5ZM4.5 27V30H7.5V27H4.5ZM18 9H15V12H18V9ZM18 4.5V1.5H15V4.5H18ZM22.5 4.5H25.5V1.5H22.5V4.5ZM22.5 9V12H25.5V9H22.5ZM4.5 4.5H1.5V7.5H4.5V4.5ZM4.5 0V-3H1.5V0H4.5ZM18 0H21V-3H18V0ZM18 4.5V7.5H21V4.5H18ZM7.5 31.5V27H1.5V31.5H7.5ZM4.5 30H18V24H4.5V30ZM15 27V31.5H21V27H15ZM18 28.5H4.5V34.5H18V28.5ZM21 27V22.5H15V27H21ZM18 25.5H22.5V19.5H18V25.5ZM19.5 22.5V27H25.5V22.5H19.5ZM22.5 24H18V30H22.5V24ZM3 27V4.5H-3V27H3ZM0 7.5H4.5V1.5H0V7.5ZM1.5 4.5V27H7.5V4.5H1.5ZM4.5 24H0V30H4.5V24ZM21 9V4.5H15V9H21ZM18 7.5H22.5V1.5H18V7.5ZM19.5 4.5V9H25.5V4.5H19.5ZM22.5 6H18V12H22.5V6ZM7.5 4.5V0H1.5V4.5H7.5ZM4.5 3H18V-3H4.5V3ZM15 0V4.5H21V0H15ZM18 1.5H4.5V7.5H18V1.5ZM31.5 31.5H28.5V34.5H31.5V31.5ZM31.5 27V24H28.5V27H31.5ZM45 27H48V24H45V27ZM45 31.5V34.5H48V31.5H45ZM27 27H24V30H27V27ZM27 13.5V10.5H24V13.5H27ZM31.5 13.5H34.5V10.5H31.5V13.5ZM31.5 27V30H34.5V27H31.5ZM45 27H42V30H45V27ZM45 13.5V10.5H42V13.5H45ZM49.5 13.5H52.5V10.5H49.5V13.5ZM49.5 27V30H52.5V27H49.5ZM31.5 13.5H28.5V16.5H31.5V13.5ZM31.5 9V6H28.5V9H31.5ZM45 9H48V6H45V9ZM45 13.5V16.5H48V13.5H45ZM34.5 31.5V27H28.5V31.5H34.5ZM31.5 30H45V24H31.5V30ZM42 27V31.5H48V27H42ZM45 28.5H31.5V34.5H45V28.5ZM30 27V13.5H24V27H30ZM27 16.5H31.5V10.5H27V16.5ZM28.5 13.5V27H34.5V13.5H28.5ZM31.5 24H27V30H31.5V24ZM48 27V13.5H42V27H48ZM45 16.5H49.5V10.5H45V16.5ZM46.5 13.5V27H52.5V13.5H46.5ZM49.5 24H45V30H49.5V24ZM34.5 13.5V9H28.5V13.5H34.5ZM31.5 12H45V6H31.5V12ZM42 9V13.5H48V9H42ZM45 10.5H31.5V16.5H45V10.5ZM63 22.5H60V25.5H63V22.5ZM63 13.5V10.5H60V13.5H63ZM67.5 13.5H70.5V10.5H67.5V13.5ZM67.5 22.5V25.5H70.5V22.5H67.5ZM72 31.5H69V34.5H72V31.5ZM72 13.5V10.5H69V13.5H72ZM76.5 13.5H79.5V10.5H76.5V13.5ZM76.5 31.5V34.5H79.5V31.5H76.5ZM54 31.5H51V34.5H54V31.5ZM54 9V6H51V9H54ZM63 9H66V6H63V9ZM63 13.5V16.5H66V13.5H63ZM58.5 13.5V10.5H55.5V13.5H58.5ZM58.5 31.5V34.5H61.5V31.5H58.5ZM67.5 13.5H64.5V16.5H67.5V13.5ZM67.5 9V6H64.5V9H67.5ZM72 9H75V6H72V9ZM72 13.5V16.5H75V13.5H72ZM66 22.5V13.5H60V22.5H66ZM63 16.5H67.5V10.5H63V16.5ZM64.5 13.5V22.5H70.5V13.5H64.5ZM67.5 19.5H63V25.5H67.5V19.5ZM75 31.5V13.5H69V31.5H75ZM72 16.5H76.5V10.5H72V16.5ZM73.5 13.5V31.5H79.5V13.5H73.5ZM76.5 28.5H72V34.5H76.5V28.5ZM57 31.5V9H51V31.5H57ZM54 12H63V6H54V12ZM60 9V13.5H66V9H60ZM63 10.5H58.5V16.5H63V10.5ZM55.5 13.5V31.5H61.5V13.5H55.5ZM58.5 28.5H54V34.5H58.5V28.5ZM70.5 13.5V9H64.5V13.5H70.5ZM67.5 12H72V6H67.5V12ZM69 9V13.5H75V9H69ZM72 10.5H67.5V16.5H72V10.5ZM90 22.5H87V25.5H90V22.5ZM90 13.5V10.5H87V13.5H90ZM94.5 13.5H97.5V10.5H94.5V13.5ZM94.5 22.5V25.5H97.5V22.5H94.5ZM99 31.5H96V34.5H99V31.5ZM99 13.5V10.5H96V13.5H99ZM103.5 13.5H106.5V10.5H103.5V13.5ZM103.5 31.5V34.5H106.5V31.5H103.5ZM81 31.5H78V34.5H81V31.5ZM81 9V6H78V9H81ZM90 9H93V6H90V9ZM90 13.5V16.5H93V13.5H90ZM85.5 13.5V10.5H82.5V13.5H85.5ZM85.5 31.5V34.5H88.5V31.5H85.5ZM94.5 13.5H91.5V16.5H94.5V13.5ZM94.5 9V6H91.5V9H94.5ZM99 9H102V6H99V9ZM99 13.5V16.5H102V13.5H99ZM93 22.5V13.5H87V22.5H93ZM90 16.5H94.5V10.5H90V16.5ZM91.5 13.5V22.5H97.5V13.5H91.5ZM94.5 19.5H90V25.5H94.5V19.5ZM102 31.5V13.5H96V31.5H102ZM99 16.5H103.5V10.5H99V16.5ZM100.5 13.5V31.5H106.5V13.5H100.5ZM103.5 28.5H99V34.5H103.5V28.5ZM84 31.5V9H78V31.5H84ZM81 12H90V6H81V12ZM87 9V13.5H93V9H87ZM90 10.5H85.5V16.5H90V10.5ZM82.5 13.5V31.5H88.5V13.5H82.5ZM85.5 28.5H81V34.5H85.5V28.5ZM97.5 13.5V9H91.5V13.5H97.5ZM94.5 12H99V6H94.5V12ZM96 9V13.5H102V9H96ZM99 10.5H94.5V16.5H99V10.5ZM108 27H105V30H108V27ZM108 9V6H105V9H108ZM112.5 9H115.5V6H112.5V9ZM112.5 27V30H115.5V27H112.5ZM112.5 31.5H109.5V34.5H112.5V31.5ZM112.5 27V24H109.5V27H112.5ZM126 27V30H129V27H126ZM126 9V6H123V9H126ZM130.5 9H133.5V6H130.5V9ZM130.5 31.5V34.5H133.5V31.5H130.5ZM111 27V9H105V27H111ZM108 12H112.5V6H108V12ZM109.5 9V27H115.5V9H109.5ZM112.5 24H108V30H112.5V24ZM115.5 31.5V27H109.5V31.5H115.5ZM112.5 30H126V24H112.5V30ZM129 27V9H123V27H129ZM126 12H130.5V6H126V12ZM127.5 9V31.5H133.5V9H127.5ZM130.5 28.5H112.5V34.5H130.5V28.5ZM153 31.5H150V34.5H153V31.5ZM153 13.5V10.5H150V13.5H153ZM157.5 13.5H160.5V10.5H157.5V13.5ZM157.5 31.5V34.5H160.5V31.5H157.5ZM135 31.5H132V34.5H135V31.5ZM135 9V6H132V9H135ZM153 9H156V6H153V9ZM153 13.5V16.5H156V13.5H153ZM139.5 13.5V10.5H136.5V13.5H139.5ZM139.5 31.5V34.5H142.5V31.5H139.5ZM156 31.5V13.5H150V31.5H156ZM153 16.5H157.5V10.5H153V16.5ZM154.5 13.5V31.5H160.5V13.5H154.5ZM157.5 28.5H153V34.5H157.5V28.5ZM138 31.5V9H132V31.5H138ZM135 12H153V6H135V12ZM150 9V13.5H156V9H150ZM153 10.5H139.5V16.5H153V10.5ZM136.5 13.5V31.5H142.5V13.5H136.5ZM139.5 28.5H135V34.5H139.5V28.5ZM162 31.5H159V34.5H162V31.5ZM162 9V6H159V9H162ZM166.5 9H169.5V6H166.5V9ZM166.5 31.5V34.5H169.5V31.5H166.5ZM162 4.5H159V7.5H162V4.5ZM162 0V-3H159V0H162ZM166.5 0H169.5V-3H166.5V0ZM166.5 4.5V7.5H169.5V4.5H166.5ZM165 31.5V9H159V31.5H165ZM162 12H166.5V6H162V12ZM163.5 9V31.5H169.5V9H163.5ZM166.5 28.5H162V34.5H166.5V28.5ZM165 4.5V0H159V4.5H165ZM162 3H166.5V-3H162V3ZM163.5 0V4.5H169.5V0H163.5ZM166.5 1.5H162V7.5H166.5V1.5ZM180 31.5H177V34.5H180V31.5ZM180 27V24H177V27H180ZM184.5 27H187.5V24H184.5V27ZM184.5 31.5V34.5H187.5V31.5H184.5ZM175.5 27H172.5V30H175.5V27ZM175.5 9H178.5V6H175.5V9ZM171 9H168V12H171V9ZM171 4.5V1.5H168V4.5H171ZM175.5 4.5V7.5H178.5V4.5H175.5ZM175.5 0V-3H172.5V0H175.5ZM180 0H183V-3H180V0ZM180 4.5H177V7.5H180V4.5ZM184.5 4.5H187.5V1.5H184.5V4.5ZM184.5 9V12H187.5V9H184.5ZM180 9V6H177V9H180ZM180 27V30H183V27H180ZM183 31.5V27H177V31.5H183ZM180 30H184.5V24H180V30ZM181.5 27V31.5H187.5V27H181.5ZM184.5 28.5H180V34.5H184.5V28.5ZM178.5 27V9H172.5V27H178.5ZM175.5 6H171V12H175.5V6ZM174 9V4.5H168V9H174ZM171 7.5H175.5V1.5H171V7.5ZM178.5 4.5V0H172.5V4.5H178.5ZM175.5 3H180V-3H175.5V3ZM177 0V4.5H183V0H177ZM180 7.5H184.5V1.5H180V7.5ZM181.5 4.5V9H187.5V4.5H181.5ZM184.5 6H180V12H184.5V6ZM177 9V27H183V9H177ZM180 24H175.5V30H180V24ZM189 36H186V39H189V36ZM189 31.5V28.5H186V31.5H189ZM207 31.5H210V28.5H207V31.5ZM207 36V39H210V36H207ZM189 22.5H186V25.5H189V22.5ZM189 9V6H186V9H189ZM193.5 9H196.5V6H193.5V9ZM193.5 22.5V25.5H196.5V22.5H193.5ZM207 31.5H204V34.5H207V31.5ZM207 27H210V24H207V27ZM193.5 27H190.5V30H193.5V27ZM193.5 22.5V19.5H190.5V22.5H193.5ZM207 22.5V25.5H210V22.5H207ZM207 9V6H204V9H207ZM211.5 9H214.5V6H211.5V9ZM211.5 31.5V34.5H214.5V31.5H211.5ZM192 36V31.5H186V36H192ZM189 34.5H207V28.5H189V34.5ZM204 31.5V36H210V31.5H204ZM207 33H189V39H207V33ZM192 22.5V9H186V22.5H192ZM189 12H193.5V6H189V12ZM190.5 9V22.5H196.5V9H190.5ZM193.5 19.5H189V25.5H193.5V19.5ZM210 31.5V27H204V31.5H210ZM207 24H193.5V30H207V24ZM196.5 27V22.5H190.5V27H196.5ZM193.5 25.5H207V19.5H193.5V25.5ZM210 22.5V9H204V22.5H210ZM207 12H211.5V6H207V12ZM208.5 9V31.5H214.5V9H208.5ZM211.5 28.5H207V34.5H211.5V28.5ZM234 31.5H231V34.5H234V31.5ZM234 9V6H231V9H234ZM238.5 9H241.5V6H238.5V9ZM238.5 31.5V34.5H241.5V31.5H238.5ZM234 4.5H231V7.5H234V4.5ZM234 0V-3H231V0H234ZM238.5 0H241.5V-3H238.5V0ZM238.5 4.5V7.5H241.5V4.5H238.5ZM237 31.5V9H231V31.5H237ZM234 12H238.5V6H234V12ZM235.5 9V31.5H241.5V9H235.5ZM238.5 28.5H234V34.5H238.5V28.5ZM237 4.5V0H231V4.5H237ZM234 3H238.5V-3H234V3ZM235.5 0V4.5H241.5V0H235.5ZM238.5 1.5H234V7.5H238.5V1.5ZM243 31.5H240V34.5H243V31.5ZM243 27V24H240V27H243ZM261 27H264V24H261V27ZM261 31.5V34.5H264V31.5H261ZM261 27H258V30H261V27ZM261 22.5V19.5H258V22.5H261ZM265.5 22.5H268.5V19.5H265.5V22.5ZM265.5 27V30H268.5V27H265.5ZM247.5 22.5H244.5V25.5H247.5V22.5ZM247.5 18V15H244.5V18H247.5ZM261 18H264V15H261V18ZM261 22.5V25.5H264V22.5H261ZM243 18H240V21H243V18ZM243 13.5V10.5H240V13.5H243ZM247.5 13.5H250.5V10.5H247.5V13.5ZM247.5 18V21H250.5V18H247.5ZM247.5 13.5H244.5V16.5H247.5V13.5ZM247.5 9V6H244.5V9H247.5ZM265.5 9H268.5V6H265.5V9ZM265.5 13.5V16.5H268.5V13.5H265.5ZM246 31.5V27H240V31.5H246ZM243 30H261V24H243V30ZM258 27V31.5H264V27H258ZM261 28.5H243V34.5H261V28.5ZM264 27V22.5H258V27H264ZM261 25.5H265.5V19.5H261V25.5ZM262.5 22.5V27H268.5V22.5H262.5ZM265.5 24H261V30H265.5V24ZM250.5 22.5V18H244.5V22.5H250.5ZM247.5 21H261V15H247.5V21ZM258 18V22.5H264V18H258ZM261 19.5H247.5V25.5H261V19.5ZM246 18V13.5H240V18H246ZM243 16.5H247.5V10.5H243V16.5ZM244.5 13.5V18H250.5V13.5H244.5ZM247.5 15H243V21H247.5V15ZM250.5 13.5V9H244.5V13.5H250.5ZM247.5 12H265.5V6H247.5V12ZM262.5 9V13.5H268.5V9H262.5ZM265.5 10.5H247.5V16.5H265.5V10.5ZM306 22.5H303V25.5H306V22.5ZM306 13.5V10.5H303V13.5H306ZM310.5 13.5H313.5V10.5H310.5V13.5ZM310.5 22.5V25.5H313.5V22.5H310.5ZM288 36H285V39H288V36ZM288 9V6H285V9H288ZM292.5 9H295.5V6H292.5V9ZM292.5 13.5H289.5V16.5H292.5V13.5ZM297 13.5H300V10.5H297V13.5ZM297 18V21H300V18H297ZM292.5 18V15H289.5V18H292.5ZM292.5 22.5H289.5V25.5H292.5V22.5ZM306 22.5H309V19.5H306V22.5ZM306 27V30H309V27H306ZM292.5 27V24H289.5V27H292.5ZM292.5 36V39H295.5V36H292.5ZM297 13.5H294V16.5H297V13.5ZM297 9V6H294V9H297ZM306 9H309V6H306V9ZM306 13.5V16.5H309V13.5H306ZM309 22.5V13.5H303V22.5H309ZM306 16.5H310.5V10.5H306V16.5ZM307.5 13.5V22.5H313.5V13.5H307.5ZM310.5 19.5H306V25.5H310.5V19.5ZM291 36V9H285V36H291ZM288 12H292.5V6H288V12ZM289.5 9V13.5H295.5V9H289.5ZM292.5 16.5H297V10.5H292.5V16.5ZM294 13.5V18H300V13.5H294ZM297 15H292.5V21H297V15ZM289.5 18V22.5H295.5V18H289.5ZM292.5 25.5H306V19.5H292.5V25.5ZM303 22.5V27H309V22.5H303ZM306 24H292.5V30H306V24ZM289.5 27V36H295.5V27H289.5ZM292.5 33H288V39H292.5V33ZM300 13.5V9H294V13.5H300ZM297 12H306V6H297V12ZM303 9V13.5H309V9H303ZM306 10.5H297V16.5H306V10.5ZM333 18H330V21H333V18ZM333 13.5V10.5H330V13.5H333ZM337.5 13.5H340.5V10.5H337.5V13.5ZM337.5 18V21H340.5V18H337.5ZM315 31.5H312V34.5H315V31.5ZM315 9V6H312V9H315ZM319.5 9H322.5V6H319.5V9ZM319.5 13.5H316.5V16.5H319.5V13.5ZM324 13.5H327V10.5H324V13.5ZM324 18V21H327V18H324ZM319.5 18V15H316.5V18H319.5ZM319.5 31.5V34.5H322.5V31.5H319.5ZM324 13.5H321V16.5H324V13.5ZM324 9V6H321V9H324ZM333 9H336V6H333V9ZM333 13.5V16.5H336V13.5H333ZM336 18V13.5H330V18H336ZM333 16.5H337.5V10.5H333V16.5ZM334.5 13.5V18H340.5V13.5H334.5ZM337.5 15H333V21H337.5V15ZM318 31.5V9H312V31.5H318ZM315 12H319.5V6H315V12ZM316.5 9V13.5H322.5V9H316.5ZM319.5 16.5H324V10.5H319.5V16.5ZM321 13.5V18H327V13.5H321ZM324 15H319.5V21H324V15ZM316.5 18V31.5H322.5V18H316.5ZM319.5 28.5H315V34.5H319.5V28.5ZM327 13.5V9H321V13.5H327ZM324 12H333V6H324V12ZM330 9V13.5H336V9H330ZM333 10.5H324V16.5H333V10.5ZM346.5 31.5H343.5V34.5H346.5V31.5ZM346.5 27V24H343.5V27H346.5ZM364.5 27H367.5V24H364.5V27ZM364.5 31.5V34.5H367.5V31.5H364.5ZM342 27H339V30H342V27ZM342 13.5V10.5H339V13.5H342ZM346.5 13.5H349.5V10.5H346.5V13.5ZM346.5 18H343.5V21H346.5V18ZM360 18V21H363V18H360ZM360 13.5V10.5H357V13.5H360ZM364.5 13.5H367.5V10.5H364.5V13.5ZM364.5 22.5V25.5H367.5V22.5H364.5ZM346.5 22.5V19.5H343.5V22.5H346.5ZM346.5 27V30H349.5V27H346.5ZM346.5 13.5H343.5V16.5H346.5V13.5ZM346.5 9V6H343.5V9H346.5ZM360 9H363V6H360V9ZM360 13.5V16.5H363V13.5H360ZM349.5 31.5V27H343.5V31.5H349.5ZM346.5 30H364.5V24H346.5V30ZM361.5 27V31.5H367.5V27H361.5ZM364.5 28.5H346.5V34.5H364.5V28.5ZM345 27V13.5H339V27H345ZM342 16.5H346.5V10.5H342V16.5ZM343.5 13.5V18H349.5V13.5H343.5ZM346.5 21H360V15H346.5V21ZM363 18V13.5H357V18H363ZM360 16.5H364.5V10.5H360V16.5ZM361.5 13.5V22.5H367.5V13.5H361.5ZM364.5 19.5H346.5V25.5H364.5V19.5ZM343.5 22.5V27H349.5V22.5H343.5ZM346.5 24H342V30H346.5V24ZM349.5 13.5V9H343.5V13.5H349.5ZM346.5 12H360V6H346.5V12ZM357 9V13.5H363V9H357ZM360 10.5H346.5V16.5H360V10.5ZM369 31.5H366V34.5H369V31.5ZM369 27V24H366V27H369ZM387 27H390V24H387V27ZM387 31.5V34.5H390V31.5H387ZM387 27H384V30H387V27ZM387 22.5V19.5H384V22.5H387ZM391.5 22.5H394.5V19.5H391.5V22.5ZM391.5 27V30H394.5V27H391.5ZM373.5 22.5H370.5V25.5H373.5V22.5ZM373.5 18V15H370.5V18H373.5ZM387 18H390V15H387V18ZM387 22.5V25.5H390V22.5H387ZM369 18H366V21H369V18ZM369 13.5V10.5H366V13.5H369ZM373.5 13.5H376.5V10.5H373.5V13.5ZM373.5 18V21H376.5V18H373.5ZM373.5 13.5H370.5V16.5H373.5V13.5ZM373.5 9V6H370.5V9H373.5ZM391.5 9H394.5V6H391.5V9ZM391.5 13.5V16.5H394.5V13.5H391.5ZM372 31.5V27H366V31.5H372ZM369 30H387V24H369V30ZM384 27V31.5H390V27H384ZM387 28.5H369V34.5H387V28.5ZM390 27V22.5H384V27H390ZM387 25.5H391.5V19.5H387V25.5ZM388.5 22.5V27H394.5V22.5H388.5ZM391.5 24H387V30H391.5V24ZM376.5 22.5V18H370.5V22.5H376.5ZM373.5 21H387V15H373.5V21ZM384 18V22.5H390V18H384ZM387 19.5H373.5V25.5H387V19.5ZM372 18V13.5H366V18H372ZM369 16.5H373.5V10.5H369V16.5ZM370.5 13.5V18H376.5V13.5H370.5ZM373.5 15H369V21H373.5V15ZM376.5 13.5V9H370.5V13.5H376.5ZM373.5 12H391.5V6H373.5V12ZM388.5 9V13.5H394.5V9H388.5ZM391.5 10.5H373.5V16.5H391.5V10.5ZM400.5 31.5H397.5V34.5H400.5V31.5ZM400.5 27V24H397.5V27H400.5ZM418.5 27H421.5V24H418.5V27ZM418.5 31.5V34.5H421.5V31.5H418.5ZM396 27H393V30H396V27ZM396 13.5V10.5H393V13.5H396ZM400.5 13.5H403.5V10.5H400.5V13.5ZM400.5 18H397.5V21H400.5V18ZM414 18V21H417V18H414ZM414 13.5V10.5H411V13.5H414ZM418.5 13.5H421.5V10.5H418.5V13.5ZM418.5 22.5V25.5H421.5V22.5H418.5ZM400.5 22.5V19.5H397.5V22.5H400.5ZM400.5 27V30H403.5V27H400.5ZM400.5 13.5H397.5V16.5H400.5V13.5ZM400.5 9V6H397.5V9H400.5ZM414 9H417V6H414V9ZM414 13.5V16.5H417V13.5H414ZM403.5 31.5V27H397.5V31.5H403.5ZM400.5 30H418.5V24H400.5V30ZM415.5 27V31.5H421.5V27H415.5ZM418.5 28.5H400.5V34.5H418.5V28.5ZM399 27V13.5H393V27H399ZM396 16.5H400.5V10.5H396V16.5ZM397.5 13.5V18H403.5V13.5H397.5ZM400.5 21H414V15H400.5V21ZM417 18V13.5H411V18H417ZM414 16.5H418.5V10.5H414V16.5ZM415.5 13.5V22.5H421.5V13.5H415.5ZM418.5 19.5H400.5V25.5H418.5V19.5ZM397.5 22.5V27H403.5V22.5H397.5ZM400.5 24H396V30H400.5V24ZM403.5 13.5V9H397.5V13.5H403.5ZM400.5 12H414V6H400.5V12ZM411 9V13.5H417V9H411ZM414 10.5H400.5V16.5H414V10.5ZM441 31.5H438V34.5H441V31.5ZM441 13.5V10.5H438V13.5H441ZM445.5 13.5H448.5V10.5H445.5V13.5ZM445.5 31.5V34.5H448.5V31.5H445.5ZM423 31.5H420V34.5H423V31.5ZM423 9V6H420V9H423ZM441 9H444V6H441V9ZM441 13.5V16.5H444V13.5H441ZM427.5 13.5V10.5H424.5V13.5H427.5ZM427.5 31.5V34.5H430.5V31.5H427.5ZM444 31.5V13.5H438V31.5H444ZM441 16.5H445.5V10.5H441V16.5ZM442.5 13.5V31.5H448.5V13.5H442.5ZM445.5 28.5H441V34.5H445.5V28.5ZM426 31.5V9H420V31.5H426ZM423 12H441V6H423V12ZM438 9V13.5H444V9H438ZM441 10.5H427.5V16.5H441V10.5ZM424.5 13.5V31.5H430.5V13.5H424.5ZM427.5 28.5H423V34.5H427.5V28.5ZM459 31.5H456V34.5H459V31.5ZM459 27V24H456V27H459ZM463.5 27H466.5V24H463.5V27ZM463.5 31.5V34.5H466.5V31.5H463.5ZM454.5 27H451.5V30H454.5V27ZM454.5 9H457.5V6H454.5V9ZM450 9H447V12H450V9ZM450 4.5V1.5H447V4.5H450ZM454.5 4.5V7.5H457.5V4.5H454.5ZM454.5 0V-3H451.5V0H454.5ZM459 0H462V-3H459V0ZM459 4.5H456V7.5H459V4.5ZM463.5 4.5H466.5V1.5H463.5V4.5ZM463.5 9V12H466.5V9H463.5ZM459 9V6H456V9H459ZM459 27V30H462V27H459ZM462 31.5V27H456V31.5H462ZM459 30H463.5V24H459V30ZM460.5 27V31.5H466.5V27H460.5ZM463.5 28.5H459V34.5H463.5V28.5ZM457.5 27V9H451.5V27H457.5ZM454.5 6H450V12H454.5V6ZM453 9V4.5H447V9H453ZM450 7.5H454.5V1.5H450V7.5ZM457.5 4.5V0H451.5V4.5H457.5ZM454.5 3H459V-3H454.5V3ZM456 0V4.5H462V0H456ZM459 7.5H463.5V1.5H459V7.5ZM460.5 4.5V9H466.5V4.5H460.5ZM463.5 6H459V12H463.5V6ZM456 9V27H462V9H456ZM459 24H454.5V30H459V24ZM468 31.5H465V34.5H468V31.5ZM468 22.5V19.5H465V22.5H468ZM472.5 22.5H475.5V19.5H472.5V22.5ZM472.5 31.5V34.5H475.5V31.5H472.5ZM471 31.5V22.5H465V31.5H471ZM468 25.5H472.5V19.5H468V25.5ZM469.5 22.5V31.5H475.5V22.5H469.5ZM472.5 28.5H468V34.5H472.5V28.5ZM513 27H510V30H513V27ZM513 4.5V1.5H510V4.5H513ZM517.5 4.5H520.5V1.5H517.5V4.5ZM517.5 27V30H520.5V27H517.5ZM495 31.5H492V34.5H495V31.5ZM495 0V-3H492V0H495ZM513 0H516V-3H513V0ZM513 4.5V7.5H516V4.5H513ZM499.5 4.5V1.5H496.5V4.5H499.5ZM499.5 27H496.5V30H499.5V27ZM513 27H516V24H513V27ZM513 31.5V34.5H516V31.5H513ZM516 27V4.5H510V27H516ZM513 7.5H517.5V1.5H513V7.5ZM514.5 4.5V27H520.5V4.5H514.5ZM517.5 24H513V30H517.5V24ZM498 31.5V0H492V31.5H498ZM495 3H513V-3H495V3ZM510 0V4.5H516V0H510ZM513 1.5H499.5V7.5H513V1.5ZM496.5 4.5V27H502.5V4.5H496.5ZM499.5 30H513V24H499.5V30ZM510 27V31.5H516V27H510ZM513 28.5H495V34.5H513V28.5ZM526.5 31.5H523.5V34.5H526.5V31.5ZM526.5 27V24H523.5V27H526.5ZM540 27H543V24H540V27ZM540 31.5V34.5H543V31.5H540ZM522 27H519V30H522V27ZM522 13.5V10.5H519V13.5H522ZM526.5 13.5H529.5V10.5H526.5V13.5ZM526.5 27V30H529.5V27H526.5ZM540 27H537V30H540V27ZM540 13.5V10.5H537V13.5H540ZM544.5 13.5H547.5V10.5H544.5V13.5ZM544.5 27V30H547.5V27H544.5ZM526.5 13.5H523.5V16.5H526.5V13.5ZM526.5 9V6H523.5V9H526.5ZM540 9H543V6H540V9ZM540 13.5V16.5H543V13.5H540ZM529.5 31.5V27H523.5V31.5H529.5ZM526.5 30H540V24H526.5V30ZM537 27V31.5H543V27H537ZM540 28.5H526.5V34.5H540V28.5ZM525 27V13.5H519V27H525ZM522 16.5H526.5V10.5H522V16.5ZM523.5 13.5V27H529.5V13.5H523.5ZM526.5 24H522V30H526.5V24ZM543 27V13.5H537V27H543ZM540 16.5H544.5V10.5H540V16.5ZM541.5 13.5V27H547.5V13.5H541.5ZM544.5 24H540V30H544.5V24ZM529.5 13.5V9H523.5V13.5H529.5ZM526.5 12H540V6H526.5V12ZM537 9V13.5H543V9H537ZM540 10.5H526.5V16.5H540V10.5ZM567 31.5H564V34.5H567V31.5ZM567 27V24H564V27H567ZM585 27H588V24H585V27ZM585 31.5V34.5H588V31.5H585ZM585 27H582V30H585V27ZM585 22.5V19.5H582V22.5H585ZM589.5 22.5H592.5V19.5H589.5V22.5ZM589.5 27V30H592.5V27H589.5ZM571.5 22.5H568.5V25.5H571.5V22.5ZM571.5 18V15H568.5V18H571.5ZM585 18H588V15H585V18ZM585 22.5V25.5H588V22.5H585ZM567 18H564V21H567V18ZM567 13.5V10.5H564V13.5H567ZM571.5 13.5H574.5V10.5H571.5V13.5ZM571.5 18V21H574.5V18H571.5ZM571.5 13.5H568.5V16.5H571.5V13.5ZM571.5 9V6H568.5V9H571.5ZM589.5 9H592.5V6H589.5V9ZM589.5 13.5V16.5H592.5V13.5H589.5ZM570 31.5V27H564V31.5H570ZM567 30H585V24H567V30ZM582 27V31.5H588V27H582ZM585 28.5H567V34.5H585V28.5ZM588 27V22.5H582V27H588ZM585 25.5H589.5V19.5H585V25.5ZM586.5 22.5V27H592.5V22.5H586.5ZM589.5 24H585V30H589.5V24ZM574.5 22.5V18H568.5V22.5H574.5ZM571.5 21H585V15H571.5V21ZM582 18V22.5H588V18H582ZM585 19.5H571.5V25.5H585V19.5ZM570 18V13.5H564V18H570ZM567 16.5H571.5V10.5H567V16.5ZM568.5 13.5V18H574.5V13.5H568.5ZM571.5 15H567V21H571.5V15ZM574.5 13.5V9H568.5V13.5H574.5ZM571.5 12H589.5V6H571.5V12ZM586.5 9V13.5H592.5V9H586.5ZM589.5 10.5H571.5V16.5H589.5V10.5ZM598.5 31.5H595.5V34.5H598.5V31.5ZM598.5 27V24H595.5V27H598.5ZM616.5 27H619.5V24H616.5V27ZM616.5 31.5V34.5H619.5V31.5H616.5ZM594 27H591V30H594V27ZM594 13.5V10.5H591V13.5H594ZM598.5 13.5H601.5V10.5H598.5V13.5ZM598.5 18H595.5V21H598.5V18ZM612 18V21H615V18H612ZM612 13.5V10.5H609V13.5H612ZM616.5 13.5H619.5V10.5H616.5V13.5ZM616.5 22.5V25.5H619.5V22.5H616.5ZM598.5 22.5V19.5H595.5V22.5H598.5ZM598.5 27V30H601.5V27H598.5ZM598.5 13.5H595.5V16.5H598.5V13.5ZM598.5 9V6H595.5V9H598.5ZM612 9H615V6H612V9ZM612 13.5V16.5H615V13.5H612ZM601.5 31.5V27H595.5V31.5H601.5ZM598.5 30H616.5V24H598.5V30ZM613.5 27V31.5H619.5V27H613.5ZM616.5 28.5H598.5V34.5H616.5V28.5ZM597 27V13.5H591V27H597ZM594 16.5H598.5V10.5H594V16.5ZM595.5 13.5V18H601.5V13.5H595.5ZM598.5 21H612V15H598.5V21ZM615 18V13.5H609V18H615ZM612 16.5H616.5V10.5H612V16.5ZM613.5 13.5V22.5H619.5V13.5H613.5ZM616.5 19.5H598.5V25.5H616.5V19.5ZM595.5 22.5V27H601.5V22.5H595.5ZM598.5 24H594V30H598.5V24ZM601.5 13.5V9H595.5V13.5H601.5ZM598.5 12H612V6H598.5V12ZM609 9V13.5H615V9H609ZM612 10.5H598.5V16.5H612V10.5ZM639 31.5H636V34.5H639V31.5ZM639 13.5V10.5H636V13.5H639ZM643.5 13.5H646.5V10.5H643.5V13.5ZM643.5 31.5V34.5H646.5V31.5H643.5ZM621 31.5H618V34.5H621V31.5ZM621 9V6H618V9H621ZM639 9H642V6H639V9ZM639 13.5V16.5H642V13.5H639ZM625.5 13.5V10.5H622.5V13.5H625.5ZM625.5 31.5V34.5H628.5V31.5H625.5ZM642 31.5V13.5H636V31.5H642ZM639 16.5H643.5V10.5H639V16.5ZM640.5 13.5V31.5H646.5V13.5H640.5ZM643.5 28.5H639V34.5H643.5V28.5ZM624 31.5V9H618V31.5H624ZM621 12H639V6H621V12ZM636 9V13.5H642V9H636ZM639 10.5H625.5V16.5H639V10.5ZM622.5 13.5V31.5H628.5V13.5H622.5ZM625.5 28.5H621V34.5H625.5V28.5ZM648 27H645V30H648V27ZM648 13.5V10.5H645V13.5H648ZM652.5 13.5H655.5V10.5H652.5V13.5ZM652.5 27V30H655.5V27H652.5ZM652.5 13.5H649.5V16.5H652.5V13.5ZM652.5 9V6H649.5V9H652.5ZM661.5 9H664.5V6H661.5V9ZM661.5 13.5V16.5H664.5V13.5H661.5ZM652.5 31.5H649.5V34.5H652.5V31.5ZM652.5 27V24H649.5V27H652.5ZM666 27V30H669V27H666ZM666 18H669V15H666V18ZM661.5 18H658.5V21H661.5V18ZM661.5 13.5V10.5H658.5V13.5H661.5ZM666 13.5V16.5H669V13.5H666ZM666 0V-3H663V0H666ZM670.5 0H673.5V-3H670.5V0ZM670.5 31.5V34.5H673.5V31.5H670.5ZM651 27V13.5H645V27H651ZM648 16.5H652.5V10.5H648V16.5ZM649.5 13.5V27H655.5V13.5H649.5ZM652.5 24H648V30H652.5V24ZM655.5 13.5V9H649.5V13.5H655.5ZM652.5 12H661.5V6H652.5V12ZM658.5 9V13.5H664.5V9H658.5ZM661.5 10.5H652.5V16.5H661.5V10.5ZM655.5 31.5V27H649.5V31.5H655.5ZM652.5 30H666V24H652.5V30ZM669 27V18H663V27H669ZM666 15H661.5V21H666V15ZM664.5 18V13.5H658.5V18H664.5ZM661.5 16.5H666V10.5H661.5V16.5ZM669 13.5V0H663V13.5H669ZM666 3H670.5V-3H666V3ZM667.5 0V31.5H673.5V0H667.5ZM670.5 28.5H652.5V34.5H670.5V28.5ZM693 31.5H690V34.5H693V31.5ZM693 9V6H690V9H693ZM697.5 9H700.5V6H697.5V9ZM697.5 31.5V34.5H700.5V31.5H697.5ZM693 4.5H690V7.5H693V4.5ZM693 0V-3H690V0H693ZM697.5 0H700.5V-3H697.5V0ZM697.5 4.5V7.5H700.5V4.5H697.5ZM696 31.5V9H690V31.5H696ZM693 12H697.5V6H693V12ZM694.5 9V31.5H700.5V9H694.5ZM697.5 28.5H693V34.5H697.5V28.5ZM696 4.5V0H690V4.5H696ZM693 3H697.5V-3H693V3ZM694.5 0V4.5H700.5V0H694.5ZM697.5 1.5H693V7.5H697.5V1.5ZM711 31.5H708V34.5H711V31.5ZM711 27V24H708V27H711ZM715.5 27H718.5V24H715.5V27ZM715.5 31.5V34.5H718.5V31.5H715.5ZM706.5 27H703.5V30H706.5V27ZM706.5 9H709.5V6H706.5V9ZM702 9H699V12H702V9ZM702 4.5V1.5H699V4.5H702ZM706.5 4.5V7.5H709.5V4.5H706.5ZM706.5 0V-3H703.5V0H706.5ZM711 0H714V-3H711V0ZM711 4.5H708V7.5H711V4.5ZM715.5 4.5H718.5V1.5H715.5V4.5ZM715.5 9V12H718.5V9H715.5ZM711 9V6H708V9H711ZM711 27V30H714V27H711ZM714 31.5V27H708V31.5H714ZM711 30H715.5V24H711V30ZM712.5 27V31.5H718.5V27H712.5ZM715.5 28.5H711V34.5H715.5V28.5ZM709.5 27V9H703.5V27H709.5ZM706.5 6H702V12H706.5V6ZM705 9V4.5H699V9H705ZM702 7.5H706.5V1.5H702V7.5ZM709.5 4.5V0H703.5V4.5H709.5ZM706.5 3H711V-3H706.5V3ZM708 0V4.5H714V0H708ZM711 7.5H715.5V1.5H711V7.5ZM712.5 4.5V9H718.5V4.5H712.5ZM715.5 6H711V12H715.5V6ZM708 9V27H714V9H708ZM711 24H706.5V30H711V24ZM720 31.5H717V34.5H720V31.5ZM720 22.5V19.5H717V22.5H720ZM724.5 22.5H727.5V19.5H724.5V22.5ZM724.5 31.5V34.5H727.5V31.5H724.5ZM723 31.5V22.5H717V31.5H723ZM720 25.5H724.5V19.5H720V25.5ZM721.5 22.5V31.5H727.5V22.5H721.5ZM724.5 28.5H720V34.5H724.5V28.5Z" fill="black" mask="url(#path-1-outside-1_4_131)"/>
</svg>
